<?xml version="1.0" encoding="UTF-8"?>
<svg id="Layer_2" data-name="Layer 2" xmlns="http://www.w3.org/2000/svg" viewBox="0 0 458.01 533.56">
  <defs>
    <style>
      .cls-1 {
        fill: #ae73e1;
      }

      .cls-1, .cls-2, .cls-3, .cls-4, .cls-5, .cls-6, .cls-7, .cls-8, .cls-9, .cls-10, .cls-11, .cls-12, .cls-13, .cls-14 {
        stroke-width: 0px;
      }

      .cls-2 {
        fill: #768901;
      }

      .cls-3 {
        fill: #777c0d;
      }

      .cls-4 {
        fill: #89a401;
      }

      .cls-5 {
        fill: #4c5600;
      }

      .cls-6 {
        fill: #413f66;
      }

      .cls-7 {
        fill: #233338;
      }

      .cls-8 {
        fill: #fff;
      }

      .cls-15 {
        opacity: .32;
      }

      .cls-9 {
        fill: #fd4d4d;
      }

      .cls-10 {
        fill: #f15a24;
      }

      .cls-11 {
        fill: #cc9211;
      }

      .cls-12 {
        fill: #b7ce11;
      }

      .cls-13 {
        fill: #7cc1eb;
      }

      .cls-14 {
        fill: #ffe862;
      }
    </style>
  </defs>
  <g id="_Ñëîé_1" data-name="Ñëîé 1">
    <g>
      <g>
        <path class="cls-2" d="M206.79,253.96s-17.29,2.12-38.31-3.05c-15.69-3.86-27.25-17.37-30.17-15.87-2.92,1.5,4.49,8.76,2.31,11.71l-3.19,19.22c-.39,2.29.32,10.57,20.31,15.34,21.6,5.16,53.68,2.43,53.68,2.43l-4.63-29.78Z"/>
        <path class="cls-5" d="M191.74,286.63c-10.66,0-23.76-.66-34.5-3.23-22.84-5.46-22.27-15.78-21.92-17.8l3.19-19.21c.06-.33.19-.65.39-.92.19-.63-1.03-3.01-1.62-4.15-1.32-2.58-3.32-6.47.06-8.2,2.37-1.21,5.03.71,9.87,4.2,5.46,3.93,12.93,9.32,21.79,11.5,20.41,5.02,37.37,3.02,37.54,3,1.14-.14,2.21.66,2.39,1.8l4.63,29.78c.09.59-.07,1.19-.43,1.66-.37.47-.92.76-1.51.81-.67.06-8.99.74-19.86.74ZM142.68,247.52l-3.12,18.8c-.06.34-1.16,8.16,18.69,12.9,17.71,4.23,43.01,3.04,50.69,2.54l-3.96-25.48c-5.26.4-19.83.93-37.01-3.29-9.66-2.38-17.86-8.28-23.28-12.19-1.45-1.05-3.13-2.26-4.37-3.01.25.54.54,1.1.78,1.57,1.37,2.68,2.91,5.69,1.58,8.16Z"/>
      </g>
      <path class="cls-1" d="M154.89,294.09c-2.01.45-4.04-1.03-4.55-3.31L86.92,7.16c-.51-2.28.7-4.49,2.71-4.93,2.01-.45,4.04,1.03,4.55,3.31l63.42,283.62c.51,2.28-.7,4.49-2.71,4.93Z"/>
      <path class="cls-6" d="M154.18,296.32c-1.19,0-2.38-.39-3.39-1.12-1.28-.93-2.19-2.33-2.55-3.95L84.82,7.63c-.77-3.43,1.18-6.79,4.34-7.5,1.56-.35,3.22.01,4.57.99,1.28.93,2.19,2.33,2.55,3.95l63.42,283.62c.77,3.43-1.18,6.79-4.34,7.5h0c-.39.09-.78.13-1.18.13ZM90.36,4.3c-.08,0-.17,0-.26.03-.83.19-1.33,1.27-1.08,2.37l63.42,283.62c.13.58.45,1.1.88,1.41.25.18.65.38,1.11.27.83-.19,1.33-1.27,1.08-2.37L92.09,6.01c-.13-.58-.45-1.1-.88-1.41-.2-.15-.5-.3-.85-.3Z"/>
      <path class="cls-9" d="M96.67,28.8l-.47.11C9.43,49.01,2.15,129.45,2.15,129.45c0,0,42.12-13.14,59.27,21.13,0,0,35.22-21.72,61.65-2.61,15.77-28.55,56.89-23.89,56.89-23.89.93-38.32,44.63-44.36,44.63-44.36,0,0-40.85-69.68-127.92-50.91Z"/>
      <path class="cls-10" d="M62.57,148.83s-12.78-70.81,29.44-118.44c0,0-42.75,11.89-64.26,40.13C6.24,98.77,2.15,129.45,2.15,129.45c0,0,32.15-14.15,60.42,19.38Z"/>
      <path class="cls-13" d="M92.01,30.39c-42.22,47.63-29.44,118.44-29.44,118.44,0,0,38.13-17.36,59.08-2.28l-26.27-117.47h0l-3.37,1.3Z"/>
      <path class="cls-13" d="M178.19,122.98s-18.6-69.51-77.08-94.62c0,0,43.74-7.45,75.23,8.94,31.49,16.39,48.27,42.41,48.27,42.41,0,0-35.11.89-46.41,43.27Z"/>
      <path class="cls-6" d="M61.42,152.73c-.2,0-.4-.03-.59-.08-.58-.17-1.06-.57-1.33-1.1-16.15-32.27-56.31-20.17-56.71-20.04-.68.21-1.43.07-1.99-.38-.56-.45-.86-1.15-.79-1.87.08-.84,2.01-20.83,14.75-43.59,11.77-21.02,35.37-48.29,80.96-58.85l.49-.11s.01,0,.02,0c45.75-9.86,78.71,4.76,98.31,18.77,21.22,15.17,31.49,32.43,31.91,33.16.36.62.39,1.38.08,2.02-.31.65-.93,1.09-1.64,1.19-1.71.24-41.91,6.27-42.78,42.29-.01.6-.28,1.17-.74,1.57-.45.4-1.06.58-1.65.52-.4-.04-39.89-4.14-54.77,22.8-.3.54-.81.92-1.41,1.06-.6.13-1.23,0-1.73-.36-24.93-18.03-58.92,2.49-59.26,2.7-.34.21-.73.32-1.13.32ZM20.33,124.91c13.69,0,31.58,4.08,41.96,22.7,7.8-4.26,36.5-17.93,60.1-2.71,14.87-23.82,46.67-23.68,55.53-23.14,2.17-31.57,32.96-41.2,43.14-43.53-3.67-5.35-13.36-18.1-29.17-29.36-18.87-13.44-50.63-27.47-94.76-17.96l-.46.1c-44.04,10.2-66.82,36.5-78.16,56.76-9.46,16.89-12.77,32.45-13.8,38.83,3.33-.73,8.98-1.69,15.62-1.69Z"/>
      <path class="cls-6" d="M175.64,123.64c-.18-.69-19.04-68.81-75.86-93.2l1.7-3.95c30.75,13.2,50.41,38.62,61.48,57.62,11.97,20.53,16.64,37.7,16.83,38.42l-4.15,1.11Z"/>
      <path class="cls-6" d="M59.73,149.38c-.13-.73-3.22-18.26-1.14-41.93,1.93-21.91,8.89-53.28,31.09-78.32l3.22,2.85c-41.06,46.31-29.06,115.93-28.94,116.63l-4.23.76Z"/>
      <rect class="cls-6" x="106.29" y="26.55" width="4.3" height="119.59" transform="translate(-16.23 25.74) rotate(-12.6)"/>
      <g class="cls-15">
        <path class="cls-8" d="M158.33,144.59c-1.2-10.11,64.92-3.35,64.84,5.94-.08,9.29-63.9,1.98-64.84-5.94Z"/>
      </g>
      <g class="cls-15">
        <path class="cls-7" d="M270.76,223.97s-44.97-2.08-60.48-5.37c0,0-56.45,119.74-46.48,173.42,9.97,53.68,43.24,67.26,103.36,82.45s130.7,10.5,166.15-23.96c0,0-30.9,30.61-114.14,19.12-73.42-10.13-132.49-35.62-138.35-86.25s32.16-139.3,39.63-146.52c7.47-7.22,50.31-12.88,50.31-12.88Z"/>
      </g>
      <path class="cls-2" d="M341.49,143.83s32.26-7.02,31.25,11.59c-1.01,18.73-32.69,13.93-32.69,13.93l1.44-25.52Z"/>
      <path class="cls-2" d="M341.23,181.94s26.55-3.59,25.09,11.47c-1.46,15.06-30.98,8.71-30.98,8.71l5.89-20.18Z"/>
      <path class="cls-2" d="M336.7,221.21s22.92-3.05,22.06,8.58c-.86,11.63-25.27,9.71-25.27,9.71l3.21-18.29Z"/>
      <path class="cls-2" d="M328.75,259.88s22.92-3.05,23.21,8.78c.28,11.83-26.21,8.37-26.21,8.37l3.01-17.15Z"/>
      <path class="cls-2" d="M321.94,298.75s21.58-2.11,20.92,8.38c-.89,14.09-23.52,6.48-23.52,6.48l2.6-14.86Z"/>
      <path class="cls-2" d="M318.11,341.58s19.36-9.77,22.53.25c4.27,13.46-19.59,14.55-19.59,14.55l-2.94-14.8Z"/>
      <path class="cls-2" d="M328.67,385.1s10.7-18.86,18.9-12.28c11.01,8.84-8.25,22.97-8.25,22.97l-10.65-10.69Z"/>
      <path class="cls-2" d="M367.34,411.83s-2.8-21.5,7.7-21.18c14.11.43,7.23,23.3,7.23,23.3l-14.94-2.13Z"/>
      <path class="cls-2" d="M409.75,407.81s-17.06-13.38-9.34-20.51c10.37-9.58,21.49,11.56,21.49,11.56l-12.15,8.95Z"/>
      <path class="cls-2" d="M430.14,380.26s-18.56-5.39-15.64-12.79c3.91-9.95,18.46.8,18.46.8l-2.81,12Z"/>
      <path class="cls-2" d="M434.11,348.68s-19.32.49-18.79-7.45c.71-10.67,17.83-4.84,17.83-4.84l.96,12.29Z"/>
      <path class="cls-5" d="M348.5,172.06c-4.8,0-8.43-.53-8.77-.58-1.1-.17-1.89-1.14-1.82-2.25l1.44-25.52c.05-.96.75-1.77,1.69-1.98.85-.18,20.77-4.41,29.63,3.14,3.05,2.59,4.47,6.18,4.23,10.66-.25,4.53-2.09,8.23-5.47,10.98-5.59,4.55-14.35,5.54-20.92,5.54ZM342.31,167.45c4.89.47,17.8,1.11,24.4-4.27,2.44-1.99,3.71-4.56,3.89-7.88.17-3.12-.72-5.46-2.72-7.16-5.48-4.67-18.21-3.6-24.34-2.53l-1.23,21.83Z"/>
      <path class="cls-5" d="M348.27,205.59c-6.86,0-12.93-1.28-13.38-1.37-.58-.13-1.09-.49-1.39-1-.31-.51-.38-1.13-.22-1.7l5.89-20.18c.24-.81.93-1.41,1.77-1.53.7-.09,17.26-2.25,24.34,4.58,2.47,2.38,3.54,5.48,3.18,9.23-.33,3.44-1.9,6.21-4.67,8.23-4,2.93-10.02,3.75-15.53,3.75ZM338.07,200.44c6.17,1,17.8,1.88,23.19-2.07,1.75-1.28,2.71-2.97,2.92-5.17.23-2.41-.38-4.28-1.88-5.72-4.21-4.06-14.41-4.03-19.41-3.57l-4.83,16.52Z"/>
      <path class="cls-5" d="M337.27,241.77c-2.22,0-3.74-.11-3.94-.13-.6-.05-1.16-.35-1.53-.83-.37-.48-.52-1.09-.42-1.69l3.21-18.29c.16-.92.9-1.64,1.83-1.76,1.6-.21,15.81-1.92,21.83,3.76,1.95,1.84,2.87,4.3,2.66,7.11-.2,2.68-1.38,4.96-3.51,6.79-5.08,4.36-14.71,5.03-20.13,5.03ZM336.04,237.46c5.25.11,14.47-.47,18.56-3.99,1.25-1.07,1.91-2.33,2.02-3.84.11-1.54-.31-2.71-1.32-3.66-3.42-3.22-12.17-3.19-16.76-2.79l-2.51,14.29Z"/>
      <path class="cls-5" d="M333.92,279.67c-4.22,0-7.65-.41-8.45-.52-.58-.08-1.11-.39-1.45-.86-.35-.47-.49-1.07-.39-1.64l3-17.15c.16-.92.9-1.64,1.83-1.76.63-.09,15.56-2,22.28,3.75,2.16,1.85,3.29,4.24,3.36,7.11.06,2.62-.93,4.94-2.88,6.69-3.97,3.57-11.41,4.38-17.3,4.38ZM328.26,275.13c5.73.47,16.15.52,20.09-3.03,1.03-.92,1.49-2,1.46-3.39-.04-1.62-.65-2.91-1.86-3.95-3.88-3.31-12.76-3.31-17.36-2.92l-2.33,13.28Z"/>
      <path class="cls-5" d="M331.38,317.79c-6.24,0-12.35-2.02-12.74-2.15-1.01-.34-1.62-1.36-1.43-2.41l2.6-14.86c.17-.95.95-1.67,1.91-1.77,1.53-.15,15.13-1.31,20.79,4.16,1.78,1.72,2.64,3.96,2.48,6.49-.23,3.66-1.72,6.44-4.42,8.25-2.55,1.71-5.89,2.28-9.2,2.28ZM321.78,312.1c4.36,1.17,12.39,2.55,16.4-.15,1.56-1.05,2.38-2.67,2.53-4.95.08-1.28-.29-2.28-1.18-3.13-3.16-3.05-11.36-3.31-15.77-3.09l-1.98,11.33Z"/>
      <path class="cls-5" d="M321.05,358.53c-1.02,0-1.91-.72-2.11-1.73l-2.94-14.8c-.19-.95.28-1.9,1.14-2.34,1.37-.69,13.64-6.69,20.89-3.63,2.28.96,3.89,2.74,4.66,5.16,1.11,3.49.72,6.62-1.14,9.29-5.07,7.27-19.78,8.02-20.4,8.05-.03,0-.07,0-.1,0ZM320.55,342.81l2.24,11.28c4.49-.48,12.48-2.1,15.24-6.07,1.07-1.54,1.26-3.35.57-5.53-.39-1.22-1.09-2.02-2.22-2.49-4.05-1.7-11.79,1.02-15.83,2.82Z"/>
      <path class="cls-5" d="M339.32,397.94c-.56,0-1.11-.21-1.52-.63l-10.65-10.69c-.68-.68-.82-1.74-.35-2.58.76-1.34,7.65-13.12,15.38-14.6,2.43-.46,4.76.13,6.73,1.71,2.86,2.3,4.27,5.11,4.2,8.37-.19,8.86-12.02,17.64-12.52,18.01-.38.28-.83.42-1.27.42ZM331.37,384.78l8.12,8.15c3.47-2.89,9.22-8.67,9.32-13.5.04-1.88-.81-3.49-2.59-4.92-1-.8-2.03-1.07-3.23-.84-4.32.83-9.25,7.38-11.61,11.11Z"/>
      <path class="cls-5" d="M382.28,416.1c-.1,0-.2,0-.31-.02l-14.94-2.13c-.96-.14-1.7-.89-1.83-1.85-.2-1.53-1.79-15.08,3.49-20.92,1.66-1.84,3.91-2.76,6.41-2.69,3.66.11,6.49,1.51,8.39,4.16,5.18,7.19,1.01,21.32.83,21.92-.28.92-1.12,1.53-2.06,1.53ZM369.31,409.93l11.39,1.62c1.03-4.4,2.15-12.47-.68-16.39-1.1-1.52-2.74-2.3-5.03-2.37-1.28-.04-2.26.37-3.09,1.28-2.95,3.26-2.95,11.46-2.58,15.86Z"/>
      <path class="cls-5" d="M409.75,409.96c-.47,0-.94-.15-1.33-.46-1.21-.95-11.84-9.51-12.16-17.37-.1-2.47.83-4.69,2.69-6.41,2.69-2.49,5.69-3.47,8.9-2.91,8.74,1.51,15.66,14.5,15.95,15.05.49.94.23,2.1-.63,2.73l-12.15,8.95c-.38.28-.83.42-1.27.42ZM406.17,386.96c-1.5,0-2.91.63-4.3,1.92-.94.87-1.36,1.85-1.31,3.07.18,4.39,5.93,10.24,9.27,13.13l9.26-6.82c-2.34-3.86-7.2-10.4-11.97-11.22-.32-.05-.63-.08-.95-.08Z"/>
      <path class="cls-5" d="M430.14,382.41c-.2,0-.4-.03-.6-.09-1.4-.41-13.76-4.15-16.79-10.31-.86-1.74-.94-3.59-.26-5.33,1.06-2.7,2.95-4.51,5.45-5.23,6.58-1.89,15.31,4.36,16.29,5.08.69.51,1.01,1.38.82,2.22l-2.81,12c-.13.57-.5,1.07-1.01,1.36-.33.19-.71.29-1.08.29ZM420.64,365.39c-.54,0-1.04.06-1.51.2-.77.22-1.87.74-2.63,2.67-.25.63-.21,1.2.11,1.86,1.42,2.89,7.4,5.78,11.97,7.38l1.95-8.3c-2.4-1.56-6.63-3.82-9.89-3.82Z"/>
      <path class="cls-5" d="M433.24,350.84c-3.4,0-13.99-.36-18.19-4.75-1.34-1.4-1.99-3.13-1.86-5.01.19-2.9,1.44-5.19,3.6-6.64,5.7-3.8,15.92-.49,17.06-.09.81.28,1.38,1.01,1.45,1.87l.96,12.29c.05.59-.15,1.17-.55,1.61-.39.44-.95.69-1.54.71-.17,0-.49.01-.93.01ZM423.91,336.95c-1.83,0-3.54.29-4.74,1.09-.66.44-1.56,1.27-1.7,3.34-.04.67.16,1.21.67,1.74,2.22,2.32,8.8,3.26,13.64,3.4l-.66-8.5c-1.88-.51-4.66-1.08-7.22-1.08Z"/>
      <path class="cls-2" d="M218.44,452.07s-1.11,23.76,1.97,40.2c0,0-20.6,8.77-19.82,12.06.78,3.29,17.2,1.85,19.65,2.7,2.45.85-.98,13.11,1.46,14.78,2.44,1.67,13.27-12.14,14.91-12.12s11.34,11.62,14.64,10.02c3.3-1.6-3.81-23.82-3.81-23.82l6.08-27.8-35.06-16Z"/>
      <path class="cls-5" d="M222.18,524.12c-.6,0-1.16-.17-1.69-.54-2.24-1.54-1.97-5.31-1.65-9.68.11-1.49.28-3.83.14-4.93-1.04-.1-3.07-.12-4.77-.14-9.21-.11-14.86-.44-15.7-4-.35-1.48-1.16-4.88,19.5-13.86-2.72-16.34-1.75-38.05-1.71-39,.03-.71.42-1.36,1.03-1.73.61-.37,1.36-.42,2.01-.12l35.06,16c.92.42,1.42,1.43,1.21,2.41l-5.95,27.24c7.45,23.48,3.88,25.21,2.53,25.86-3.19,1.55-7.13-1.76-12.77-6.98-.89-.82-2.01-1.86-2.76-2.47-.91.81-2.4,2.34-3.57,3.54-4.99,5.13-8.31,8.39-10.9,8.39ZM203.32,503.77c2.36.66,8,.73,10.94.77,3.64.04,5.59.08,6.69.46,2.78.96,2.51,4.61,2.18,9.22-.11,1.5-.27,3.78-.16,5.13,1.84-1.25,5.13-4.64,7.04-6.61,3.91-4.02,5.12-5.2,6.6-5.2h.03c1.35.02,2.45.97,5.69,3.97,1.8,1.66,5.77,5.33,7.65,6.07.33-3.02-1.97-12.85-4.59-21.04-.11-.36-.13-.74-.05-1.11l5.71-26.11-30.55-13.94c-.17,6.99-.3,24.03,2.04,36.51.19.99-.34,1.98-1.27,2.37-7.26,3.09-15.46,7.32-17.94,9.52Z"/>
      <path class="cls-4" d="M332.77,254.76s14.68-79,15.75-94.63-7.22-39.55-27.12-44.71c-16.84-4.36-28.35,5.02-32.39,4.31-3.23-.57-11.36-11.15-23.09-10.71-13.95.52-33.3,33.28-33.3,33.28,0,0-.32,6.6-7.59,5.33-7.27-1.27-19.58-11.76-67.88-6.9,0,0-1.7-12.2-9.99-14.24-11.97-2.94-14.52,11.61-14.52,11.61,0,0-.1-12.63-12.63-11.31-12.75,1.34-15.63,37.34-14.07,44.92,1.83,8.9,1.17,18.9,30.53,29.47,28.61,10.29,73.81,17.41,73.81,17.41,0,0-7.98,20.05-12.71,31.74-5,12.35-54.29,114.85-26.31,170.89,31.42,62.94,213.2,84.81,262.06,29.28,46.56-52.93,8.98-141.02-6.04-131.74-8.4,5.19,30.8,93.36-50.23,91.91-84.64-1.51-44.26-155.92-44.26-155.92Z"/>
      <path class="cls-14" d="M266.69,425.75c-39.06-52.8,15.12-119.9,2.24-153.97-10.46-27.67-52.6-29.81-68.06-29.63-1.17,2.92-2.31,5.74-3.3,8.18-5,12.35-54.29,114.85-26.31,170.89,31.42,62.94,213.2,84.81,262.06,29.28,1.24-1.41,2.42-2.86,3.54-4.32-37.59,29.91-132.94,29.89-170.16-20.43Z"/>
      <path class="cls-3" d="M364.22,468.67c-7.2,0-14.48-.46-21.69-1.41-34.16-4.5-61.71-18.79-77.58-40.24-24.35-32.92-13.67-70.31-4.24-103.3,5.9-20.64,11-38.47,6.19-51.19-10.13-26.78-53.1-28.39-66.03-28.24l-.05-4.3c17.46-.18,59.29,2.43,70.1,31.02,5.31,14.04.03,32.51-6.08,53.89-9.16,32.04-19.54,68.34,3.56,99.57,15.17,20.5,41.69,34.19,74.68,38.53,35.49,4.67,72.63-2.76,92.41-18.5l2.68,3.36c-16.57,13.18-44.62,20.81-73.96,20.81Z"/>
      <path class="cls-5" d="M201.63,193.45c-8.6,0-19.21-.83-32.29-2.87-57.93-9.02-64.02-25.58-64.52-27.44-.31-1.15.37-2.33,1.51-2.64,1.13-.31,2.29.35,2.62,1.47.13.36,6.12,15.82,61.05,24.37,41.3,6.43,55.87.41,60.88-3.76,3.19-2.65,3.29-5.08,3.3-5.18.03-1.16.99-2.11,2.15-2.11h.01c1.17,0,2.12.92,2.14,2.09,0,.43-.06,4.34-4.53,8.23-4.56,3.97-13.77,7.84-32.32,7.84Z"/>
      <path class="cls-2" d="M145.29,132.16c-5.79-.43-8.16,15.18-2.03,16.26,5.03.88,9.44-15.71,2.03-16.26Z"/>
      <g>
        <path class="cls-2" d="M122.68,134.46c-6.95-1.22-7.22,11.44-2.15,12.33,4.63.81,7.11-11.46,2.15-12.33Z"/>
        <path class="cls-5" d="M120.98,148.98c-.27,0-.54-.02-.82-.07-4.11-.72-5.84-5.84-5.08-10.17.79-4.52,4-7.09,7.97-6.4h0c3.42.6,5.15,4.27,4.3,9.13-.8,4.56-3.35,7.51-6.37,7.51ZM121.81,136.53c-1.62,0-2.26,1.57-2.5,2.95-.45,2.57.5,5,1.59,5.19.51.07,1.76-1.38,2.21-3.94.36-2.08-.01-4.02-.8-4.16-.18-.03-.34-.05-.5-.05Z"/>
      </g>
      <path class="cls-5" d="M143.63,150.6c-.28,0-.54-.03-.75-.06-3.86-.68-5.97-5.04-5.24-10.85.61-4.89,3.29-10.01,7.81-9.67h0c2.34.17,4.16,1.48,5.13,3.68,1.87,4.23.22,10.95-2.43,14.33-1.65,2.11-3.35,2.57-4.52,2.57ZM145.07,134.3c-1.16,0-2.74,2.48-3.17,5.91-.39,3.18.36,5.85,1.72,6.09.12.02.56-.18,1.14-.92,1.99-2.54,2.94-7.56,1.88-9.94-.33-.75-.77-1.08-1.52-1.13h0s-.04,0-.06,0Z"/>
      <path class="cls-9" d="M290.66,167.92c-6.47,1.55-9.32,10.94-4.81,15.83,4.51,4.89,14.09,2.81,16.17-3.51,2.07-6.32-4.42-13.67-10.95-12.4l-.41.09Z"/>
      <path class="cls-3" d="M266.57,300.82c-34.94-13.42-79.65-20.53-80.1-20.6l.67-4.25c.45.07,45.61,7.25,80.98,20.83l-1.54,4.01Z"/>
      <g class="cls-15">
        <path class="cls-7" d="M270.76,223.97s-44.97-2.08-60.48-5.37c0,0-56.45,119.74-46.48,173.42,9.97,53.68,43.24,67.26,103.36,82.45s130.7,10.5,166.15-23.96c0,0-30.9,30.61-114.14,19.12-73.42-10.13-132.49-35.62-138.35-86.25s32.16-139.3,39.63-146.52c7.47-7.22,50.31-12.88,50.31-12.88Z"/>
      </g>
      <path class="cls-3" d="M256.96,341.21c-30.15-12.56-85.32-19.88-85.88-19.95l.56-4.26c.56.07,56.3,7.46,86.97,20.24l-1.65,3.97Z"/>
      <path class="cls-3" d="M252.19,375.08c-24.08-5.84-87.91-10.53-88.56-10.58l.31-4.29c2.64.19,64.83,4.76,89.26,10.68l-1.01,4.18Z"/>
      <path class="cls-3" d="M167.04,412.11l-.08-4.3c.55,0,55.6-1.09,86.87-8.57l1,4.18c-31.73,7.58-87.23,8.67-87.79,8.68Z"/>
      <path class="cls-3" d="M208.02,456.07l-1.8-3.9c.35-.16,35.03-16.22,54.64-31.36l2.63,3.4c-20,15.44-54.03,31.2-55.46,31.86Z"/>
      <path class="cls-3" d="M254.99,473.67l-3.04-3.04c.21-.21,20.8-20.93,26.03-32.67l3.93,1.75c-5.54,12.47-26.04,33.09-26.91,33.96Z"/>
      <path class="cls-3" d="M296.16,480.38l-3.73-2.14c4.48-7.78,6.6-24.23,6.62-24.4l4.27.54c-.09.71-2.26,17.48-7.16,26Z"/>
      <path class="cls-3" d="M328.68,482.29l-3.31-2.75c3.09-3.72,4.56-12.26,4.86-15.24l4.28.44c-.05.49-1.28,12.06-5.83,17.54Z"/>
      <path class="cls-3" d="M358.86,482.26l-2.47-3.52c2.93-2.05,2.53-8.45,2.16-10.54l4.23-.75c.19,1.1,1.73,10.83-3.93,14.8Z"/>
      <path class="cls-3" d="M385.01,477.58l-3.93-1.75c.88-1.98,1.56-7.49,1.79-10.49l4.29.32c-.06.87-.67,8.61-2.14,11.92Z"/>
      <path class="cls-12" d="M327.67,194.36c-7.16-2.78-14.44,29.27-6.78,29.84,7.66.57,14.04-27.02,6.78-29.84Z"/>
      <path class="cls-12" d="M308.77,231.39c-7.37-2.15-9.45,18.51-4.45,20.94,5,2.43,11.09-19,4.45-20.94Z"/>
      <path class="cls-12" d="M321.5,256.12c-5.87-1.71-7.77,13.38-4.14,14.79,3.63,1.41,10.78-12.85,4.14-14.79Z"/>
      <path class="cls-12" d="M311.42,335.8c-6.08-1.65-6.84,21.3-1.44,21.47,5.4.17,9.58-19.27,1.44-21.47Z"/>
      <path class="cls-12" d="M298.22,366.84c-7.3,1.82-2.45,22.84,3.21,21.51s4.09-23.33-3.21-21.51Z"/>
      <path class="cls-12" d="M317.22,377.93c-5.93.62,2.37,17.48,6.66,15.13,4.29-2.35-1.13-15.71-6.66-15.13Z"/>
      <path class="cls-12" d="M332.27,411.59c-2.99,5.54,20.47,16,22.14,10.86,1.68-5.14-18.7-17.24-22.14-10.86Z"/>
      <path class="cls-12" d="M373.75,422.74c-.23,4.64,14.79,4.14,13.81.87s-13.51-7.02-13.81-.87Z"/>
      <path class="cls-12" d="M313.09,405.91c-3.15,2.96,4.44,10.09,6.34,8.09,1.9-1.99-3.55-10.71-6.34-8.09Z"/>
      <path class="cls-12" d="M358.58,434.05c-.54,3.1,9.39,3.97,10.05.21.48-2.71-9.26-4.73-10.05-.21Z"/>
      <path class="cls-12" d="M402.17,419.97c1.27,4.27,13.68,1.62,12.83-2.41-.79-3.74-13.81-.87-12.83,2.41Z"/>
      <path class="cls-12" d="M334.24,174.57c-4.52-.79-3.97,9.39-1.71,9.78,2.26.4,6.23-8.99,1.71-9.78Z"/>
      <path class="cls-12" d="M438.55,380.57c-3.6-1.49-9.81,16.12-6.18,17.53,3.63,1.41,12.69-14.84,6.18-17.53Z"/>
      <path class="cls-12" d="M436.61,356.19c-2.97,1.31-2.6,10.4.41,10.93s2.11-12.04-.41-10.93Z"/>
      <path class="cls-12" d="M435.92,408.82c-2.48-3.01-12.38,8.69-9.15,12.36,3.24,3.67,13.62-6.92,9.15-12.36Z"/>
      <path class="cls-5" d="M330.73,484.51c-12.75,0-26.08-.86-39.77-2.64-47.48-6.17-104.36-25.09-121.63-59.68-11.16-22.35-11.68-54.33-1.55-95.04,8.05-32.33,20.51-60.88,25.83-73.07.89-2.04,1.56-3.58,1.96-4.55,3.69-9.12,9.43-23.5,11.72-29.24-10.14-1.71-47.07-8.26-71.56-17.07-28.09-10.11-29.9-20.08-31.49-28.88-.13-.73-.26-1.46-.41-2.18-1.29-6.28.11-31.48,8.07-42.36,2.26-3.1,4.91-4.82,7.88-5.14,4.33-.45,7.85.51,10.5,2.87,1.19,1.06,2.06,2.29,2.7,3.54,1.08-1.92,2.6-3.87,4.7-5.24,2.86-1.87,6.22-2.35,9.99-1.42,7.43,1.83,10.27,10.1,11.2,14,37.66-3.54,53.22,2.34,61.65,5.53,2.02.76,3.61,1.36,4.87,1.59,1.65.29,2.9.1,3.73-.56,1.21-.96,1.35-2.74,1.35-2.76.02-.35.12-.69.3-.99,2.04-3.46,20.37-33.79,35.07-34.34,8.84-.34,15.63,4.9,20.1,8.36,1.29,1,2.9,2.25,3.46,2.38.67.12,2.95-.76,4.78-1.47,5.81-2.24,15.54-5.98,27.76-2.81,21.42,5.54,29.81,31.28,28.73,46.94-1.07,15.57-15.18,91.64-15.78,94.87,0,.05-.02.1-.03.15-.25.95-24.6,95.93,5.63,135.8,8.55,11.28,20.86,17.14,36.59,17.42,18.46.31,32.01-4.16,40.17-13.34,13.88-15.63,10.29-41.87,7.92-59.24-1.5-10.95-2.32-16.98.98-19.02,2.21-1.36,6.87-2.53,13.24,5.01,7.91,9.37,16.66,30.29,18.36,55.9,1.35,20.43-1.5,49.86-22.81,74.08-18.35,20.86-57.23,32.59-104.19,32.59ZM121.77,128.86c-.49,0-1.01.03-1.54.08-1.71.18-3.34,1.32-4.86,3.4-7.01,9.58-8.45,33.5-7.33,38.95.15.75.29,1.51.43,2.28,1.45,8.03,2.95,16.33,28.72,25.6,28.08,10.11,72.97,17.23,73.42,17.3.65.1,1.21.49,1.53,1.06.32.57.37,1.25.13,1.86-.08.2-8.04,20.19-12.72,31.75-.4,1-1.09,2.57-2,4.66-41.06,94.05-35.92,141.35-24.38,164.47,13.61,27.26,60.06,49.77,118.34,57.34,62.74,8.15,117.76-3.04,140.18-28.52,36.83-41.87,19.77-106.15,4.39-124.36-1.47-1.74-5.11-5.58-7.61-4.18-.9,1.44.12,8.86.94,14.83,2.48,18.15,6.24,45.57-8.96,62.68-9.03,10.16-23.66,15.13-43.46,14.78-17.12-.31-30.55-6.74-39.94-19.13-31.31-41.31-7.67-134.45-6.38-139.41.53-2.84,14.67-79.19,15.71-94.31.98-14.21-6.46-37.54-25.52-42.48-10.9-2.82-19.46.48-25.14,2.66-3.03,1.17-5.23,2.01-7.08,1.69-1.53-.27-3.13-1.5-5.34-3.21-3.98-3.08-10-7.74-17.31-7.46-10.32.39-25.85,22.73-31.3,31.84-.17,1.14-.76,3.61-2.9,5.31-1.83,1.46-4.24,1.95-7.15,1.44-1.66-.29-3.42-.96-5.65-1.8-8.24-3.11-23.58-8.91-61.64-5.08-1.17.11-2.18-.7-2.34-1.84-.01-.1-1.61-10.78-8.37-12.44-2.6-.64-4.76-.36-6.61.84-4.06,2.65-5.27,8.98-5.28,9.04-.19,1.09-1.18,1.86-2.3,1.77-1.11-.09-1.96-1.01-1.97-2.13,0-.04-.11-4.75-3.09-7.4-1.4-1.24-3.29-1.87-5.63-1.87ZM332.77,254.76h.01-.01Z"/>
      <path class="cls-2" d="M227.2,121.82c2.88-16.13,16.53-26.62,32.53-23.77,16,2.85,25.45,18.47,22.57,34.6-2.88,16.13-16.4,25.54-32.4,22.69-16-2.85-25.58-17.39-22.7-33.52Z"/>
      <g>
        <circle class="cls-8" cx="253.66" cy="125.62" r="21.86" transform="translate(-26.52 165.86) rotate(-34.52)"/>
        <path class="cls-11" d="M260.19,124.8c-1.19,6.76-7.63,11.29-14.39,10.1-6.76-1.19-11.29-7.63-10.1-14.39,1.19-6.76,7.63-11.29,14.39-10.1,6.76,1.19,11.29,7.63,10.1,14.39Z"/>
        <circle class="cls-7" cx="247.94" cy="122.66" r="7.57" transform="translate(-1.8 3.71) rotate(-.85)"/>
        <path class="cls-8" d="M251.13,118.36c.28-1.61,1.9-2.67,3.61-2.37,1.71.3,2.87,1.85,2.58,3.46-.28,1.61-1.9,2.67-3.61,2.37-1.71-.3-2.87-1.85-2.58-3.46Z"/>
      </g>
      <path class="cls-2" d="M324.2,110.1c16.27,1.58,27.74,14.86,26.1,31.75-1.64,16.89-16.47,28.09-32.74,26.52-16.27-1.58-26.66-14.82-25.02-31.72s15.39-28.13,31.66-26.55Z"/>
      <circle class="cls-8" cx="319.49" cy="138.25" r="21.86" transform="translate(35.99 340.29) rotate(-58.88)"/>
      <circle class="cls-11" cx="312.63" cy="135.09" r="12.43" transform="translate(-27.91 130.59) rotate(-22.61)"/>
      <path class="cls-7" d="M320.08,136.4c-.72,4.12-4.65,6.87-8.76,6.15-4.12-.72-6.87-4.65-6.15-8.76s4.65-6.87,8.76-6.15c4.12.72,6.87,4.65,6.15,8.76Z"/>
      <path class="cls-8" d="M315.81,130.8c.28-1.61,1.9-2.67,3.61-2.37,1.71.3,2.87,1.85,2.58,3.46-.28,1.61-1.9,2.67-3.61,2.37s-2.87-1.85-2.58-3.46Z"/>
      <path class="cls-5" d="M262.26,91.21c-.95,0-1.81-.63-2.07-1.58-.62-2.29-2.97-4.09-5.34-4.1h-.03c-2.36,0-4.71,1.77-5.36,4.04-.33,1.14-1.51,1.8-2.66,1.48-1.14-.33-1.8-1.52-1.48-2.66,1.17-4.11,5.23-7.14,9.54-7.16,4.34.03,8.32,3.08,9.46,7.27.31,1.15-.36,2.33-1.51,2.64-.19.05-.38.08-.57.08Z"/>
      <path class="cls-5" d="M335.92,103.16c-1.16,0-2.12-.93-2.15-2.1-.07-2.98-2.5-5.85-5.43-6.4-2.93-.55-6.24,1.23-7.39,3.98-.46,1.1-1.72,1.61-2.81,1.16-1.1-.46-1.61-1.72-1.16-2.81,1.92-4.6,7.26-7.47,12.15-6.55,4.89.92,8.81,5.55,8.92,10.53.03,1.19-.91,2.17-2.1,2.2-.02,0-.03,0-.05,0Z"/>
      <path class="cls-2" d="M290.15,435.92s14.64,71.92,14.47,75.19-5.83,17.76-3.42,18.71,12.78-9.2,15.98-7.39c3.19,1.81,11,9.59,14.32,8.94,3.32-.65,2.31-13.02,2.31-13.02,0,0,15.47,2.43,16.5-1.62s-16.69-10.71-16.69-10.71l-11.09-73.17s-6.34-6.32-17.35-4.88c-9.68,1.27-15.03,7.94-15.03,7.94Z"/>
      <path class="cls-5" d="M331.06,533.56c-2.84,0-6.28-2.56-11.02-6.34-1.51-1.2-2.94-2.34-3.82-2.87-.01,0-.02,0-.03,0-1.29,0-5.08,2.55-7.15,3.93-3.91,2.63-6.51,4.36-8.62,3.53-3.25-1.27-2.05-5.95.52-14.79.7-2.4,1.49-5.13,1.54-6.03-.05-2.98-8.57-45.32-14.28-73.04-.24-1.16.51-2.3,1.67-2.54,1.16-.24,2.3.51,2.54,1.67,2.43,11.79,14.53,70.75,14.36,74.12-.07,1.33-.69,3.53-1.7,7.01-.72,2.47-1.92,6.61-2.25,8.93,1.14-.64,2.68-1.67,3.83-2.44,4.65-3.12,8.67-5.82,11.59-4.17,1.17.66,2.71,1.89,4.49,3.31,2.15,1.72,6.54,5.21,8.17,5.39.78-1.2,1.15-6.13.77-10.73-.05-.66.2-1.3.68-1.75.48-.45,1.14-.65,1.8-.55,6.03.95,12.37.92,13.93,0-1.17-1.78-7.98-5.47-15.21-8.18-.74-.28-1.26-.93-1.37-1.71l-10.01-70.61c-.17-1.18.65-2.26,1.83-2.43,1.17-.17,2.26.65,2.43,1.83l9.83,69.36c8.61,3.33,18.01,8.12,16.82,12.79-1.15,4.53-9.78,4.38-16.28,3.58.22,5.84-.47,11.9-4.2,12.63-.28.05-.56.08-.85.08Z"/>
      <path class="cls-5" d="M255.48,157.99c-1.94,0-3.93-.18-5.95-.54-17.05-3.04-27.56-18.52-24.44-36.02h0c1.5-8.41,5.82-15.64,12.18-20.35,6.47-4.8,14.59-6.63,22.85-5.16,16.81,3,27.49,19.29,24.31,37.1-2.71,15.18-14.44,24.96-28.94,24.96ZM254.57,99.73c-5.38,0-10.49,1.65-14.75,4.81-5.47,4.06-9.2,10.33-10.51,17.65h0c-2.69,15.08,6.32,28.42,20.96,31.03,14.94,2.66,27.24-5.95,29.91-20.95,2.75-15.43-6.4-29.54-20.83-32.11-1.61-.29-3.21-.43-4.78-.43ZM227.2,121.82h.01-.01Z"/>
      <path class="cls-5" d="M320.63,170.67c-1.09,0-2.18-.05-3.28-.16-8.45-.82-15.8-4.7-20.71-10.92-4.87-6.19-7.09-14.41-6.24-23.14,1.74-17.95,16.37-30.19,34-28.49,8.5.82,16.04,4.69,21.21,10.9,5.24,6.28,7.67,14.53,6.83,23.21-.84,8.66-4.99,16.35-11.69,21.66-5.72,4.53-12.76,6.95-20.12,6.95ZM321.19,112.1c-13.93,0-25.1,10.21-26.51,24.76-.74,7.62,1.16,14.75,5.34,20.06,4.17,5.3,10.47,8.6,17.74,9.3,7.42.72,14.63-1.37,20.32-5.88,5.78-4.58,9.36-11.22,10.08-18.71.73-7.53-1.35-14.64-5.85-20.04-4.45-5.33-10.95-8.66-18.32-9.37h0c-.95-.09-1.88-.14-2.81-.14Z"/>
      <g>
        <path class="cls-2" d="M136.01,237.22c-5.51,3.21-4.49,34.92,5.18,40.5,9.66,5.58,20.94-3.92,20.16-8.01-.78-4.09-10.46-1.92-10.69-5.52-.23-3.6,8.69-1.59,9.29-8.35s-11.56-2.88-11.79-6.48c-.23-3.6,7.08-2.52,6.17-8.66-.91-6.14-14.33-5.8-18.31-3.48Z"/>
        <path class="cls-5" d="M147.53,281.57c-2.45,0-4.98-.58-7.42-1.99-7.54-4.36-9.58-19.91-9.59-28.41,0-4.94.55-13.56,4.41-15.81h0c3.62-2.11,12.28-2.65,17.23-.28,3.12,1.5,4.06,3.71,4.29,5.3.74,5.01-2.64,6.81-4.67,7.89-.32.17-.74.39-1.05.59.69.13,1.67.22,2.4.28,2.79.24,5.96.52,7.77,2.69.94,1.12,1.34,2.53,1.19,4.2-.47,5.28-4.81,6.69-7.4,7.53-.43.14-.99.32-1.42.5.73.23,1.89.42,2.68.55,2.88.47,6.83,1.12,7.51,4.69.61,3.2-2.52,6.71-5.38,8.74-2.77,1.97-6.55,3.52-10.55,3.52ZM137.09,239.08c-.72.42-2.29,4.04-2.28,12.09.02,9.9,2.63,21.91,7.44,24.7,5.64,3.26,11.32.03,12.93-1.04,3.01-2,4.12-4.18,4.05-4.71-.12-.62-2.73-1.04-3.99-1.25-2.75-.45-6.52-1.07-6.74-4.53-.2-3.21,2.83-4.2,4.84-4.85,2.88-.93,4.25-1.62,4.45-3.83.07-.74-.13-.98-.2-1.06-.67-.8-3.09-1.01-4.85-1.17-2.75-.24-6.52-.57-6.74-3.93-.19-2.93,2.18-4.19,3.75-5.02,1.94-1.03,2.72-1.53,2.43-3.46-.04-.3-.18-1.22-1.9-2.05-3.79-1.82-10.91-1.22-13.2.12h0Z"/>
      </g>
      <g>
        <path class="cls-2" d="M294.95,299.33c5.05,10.55,20.58,11.21,39.57,24.86,14.18,10.18,20.25,28.31,23.79,28,3.54-.31-.1-12.23,3.28-14.3,3.39-2.07,7.77,7.28,11.16,5.21,3.12-1.91-2.04-13.09.46-15.08,2.5-1.99,10.26,6.03,12.61,2.29,1.33-2.12-10.54-18.54-28.12-32.07-25.21-19.4-33.68-21.61-42.4-22.33-11.61-.96-27.55,8.41-20.36,23.43Z"/>
        <path class="cls-5" d="M358.19,354.34c-2.59,0-4.44-2.93-7.71-8.1-3.88-6.14-9.19-14.54-17.21-20.3-8.14-5.85-15.5-9.2-21.99-12.16-8.43-3.84-15.09-6.88-18.27-13.51-.51-1.07-.06-2.35,1.01-2.87,1.07-.51,2.35-.06,2.87,1.01,2.5,5.23,8.24,7.84,16.17,11.46,6.34,2.89,14.23,6.49,22.71,12.58,8.7,6.25,14.5,15.43,18.34,21.5,1.23,1.94,2.68,4.24,3.67,5.42.11-1.06.09-2.65.08-3.73-.05-3.89-.11-7.92,2.61-9.58,3.08-1.88,6.02.86,8.17,2.87.8.75,2.24,2.1,2.92,2.3.3-1-.25-4.05-.55-5.73-.72-3.98-1.34-7.42.86-9.16,2.21-1.76,5.1-.27,7.9,1.17,1.03.53,2.79,1.44,3.76,1.63-1.63-3.88-11.47-17.14-27.14-29.2-24.91-19.17-33.12-21.21-41.26-21.89-1.18-.1-2.06-1.14-1.96-2.32.1-1.18,1.15-2.07,2.32-1.96,8.86.74,17.69,2.88,43.53,22.77,10.64,8.19,18.04,16.45,21.5,20.65,9.13,11.07,7.68,13.39,7.13,14.27-2.34,3.74-6.85,1.42-9.84-.12-.92-.47-2.35-1.21-3.15-1.42-.08,1.08.33,3.38.59,4.83.75,4.15,1.52,8.43-1.37,10.2-3.08,1.88-6.02-.86-8.17-2.87-.86-.81-2.46-2.31-3.06-2.33-.56.58-.51,4.13-.49,5.84.05,3.95.12,8.42-3.66,8.76-.1,0-.21.01-.31.01Z"/>
      </g>
      <path class="cls-5" d="M262.31,226c-25.71,0-52.15-5.24-52.46-5.3-1.16-.23-1.92-1.37-1.68-2.53.23-1.16,1.36-1.92,2.53-1.68.34.07,34.6,6.85,62.61,4.85,1.18-.08,2.21.81,2.3,1.99.08,1.18-.81,2.21-1.99,2.3-3.69.26-7.49.38-11.31.38Z"/>
    </g>
  </g>
</svg>